<?xml version="1.0" encoding="UTF-8" standalone="no"?>
<svg
   width="419"
   height="660"
   version="1.1"
   id="svg112"
   sodipodi:docname="illustration-phone-mockup.svg"
   inkscape:version="1.2.2 (732a01da63, 2022-12-09)"
   xmlns:inkscape="http://www.inkscape.org/namespaces/inkscape"
   xmlns:sodipodi="http://sodipodi.sourceforge.net/DTD/sodipodi-0.dtd"
   xmlns:xlink="http://www.w3.org/1999/xlink"
   xmlns="http://www.w3.org/2000/svg"
   xmlns:svg="http://www.w3.org/2000/svg">
  <sodipodi:namedview
     id="namedview114"
     pagecolor="#ffffff"
     bordercolor="#000000"
     borderopacity="0.25"
     inkscape:showpageshadow="2"
     inkscape:pageopacity="0.0"
     inkscape:pagecheckerboard="0"
     inkscape:deskcolor="#d1d1d1"
     showgrid="false"
     inkscape:zoom="1.5560606"
     inkscape:cx="209.50341"
     inkscape:cy="329.67868"
     inkscape:window-width="2560"
     inkscape:window-height="1377"
     inkscape:window-x="-8"
     inkscape:window-y="-8"
     inkscape:window-maximized="1"
     inkscape:current-layer="g110" />
  <defs
     id="defs55">
    <linearGradient
       id="c"
       x1="29.020227"
       x2="29.020227"
       y1="0"
       y2="54.683819"
       gradientTransform="matrix(4.437181,0,0,0.22536831,-337.39305,-12.85297)"
       gradientUnits="userSpaceOnUse">
      <stop
         offset="0%"
         stop-color="#454545"
         id="stop2" />
      <stop
         offset="22.628%"
         stop-color="#999"
         id="stop4" />
      <stop
         offset="100%"
         stop-color="#FFF"
         id="stop6" />
    </linearGradient>
    <linearGradient
       id="d"
       x1="1512.1223"
       x2="1456.5737"
       y1="42.378498"
       y2="42.378498"
       gradientTransform="matrix(0.17031361,0,0,5.8715215,-337.39305,-12.85297)"
       gradientUnits="userSpaceOnUse">
      <stop
         offset="0%"
         stop-color="#FFF"
         stop-opacity="0"
         id="stop9" />
      <stop
         offset="22.218%"
         stop-color="#BABABA"
         id="stop11" />
      <stop
         offset="54.678%"
         stop-color="#FFF"
         stop-opacity="0"
         id="stop13" />
      <stop
         offset="100%"
         stop-color="#FFF"
         stop-opacity="0"
         id="stop15" />
    </linearGradient>
    <linearGradient
       id="e"
       x1="80.158011"
       x2="24.520469"
       y1="42.378498"
       y2="42.378498"
       gradientTransform="matrix(-0.17031361,0,0,5.8715215,-323.74105,-12.85297)"
       gradientUnits="userSpaceOnUse">
      <stop
         offset="0%"
         stop-color="#FFF"
         stop-opacity="0"
         id="stop18" />
      <stop
         offset="22.218%"
         stop-color="#BABABA"
         id="stop20" />
      <stop
         offset="54.678%"
         stop-color="#FFF"
         stop-opacity="0"
         id="stop22" />
      <stop
         offset="100%"
         stop-color="#FFF"
         stop-opacity="0"
         id="stop24" />
    </linearGradient>
    <linearGradient
       id="g"
       x1="164.28678"
       x2="164.28678"
       y1="0"
       y2="326.01397"
       gradientTransform="scale(0.70794499,1.4125391)"
       gradientUnits="userSpaceOnUse">
      <stop
         offset="0%"
         stop-color="#9CB6CD"
         id="stop27" />
      <stop
         offset="42.056%"
         stop-color="#9AB3CA"
         id="stop29" />
      <stop
         offset="71.659%"
         stop-color="#557496"
         id="stop31" />
      <stop
         offset="100%"
         stop-color="#475178"
         id="stop33" />
    </linearGradient>
    <filter
       id="a"
       width="1.8422278"
       height="1.43499"
       x="-0.37259849"
       y="-0.19243799"
       filterUnits="objectBoundingBox">
      <feOffset
         dx="25"
         dy="25"
         in="SourceAlpha"
         result="shadowOffsetOuter1"
         id="feOffset36" />
      <feGaussianBlur
         in="shadowOffsetOuter1"
         result="shadowBlurOuter1"
         stdDeviation="40"
         id="feGaussianBlur38" />
      <feColorMatrix
         in="shadowBlurOuter1"
         values="0 0 0 0 0.212302148 0 0 0 0 0.325209598 0 0 0 0 0.419299139 0 0 0 0.300726617 0"
         id="feColorMatrix40" />
    </filter>
    <filter
       id="i"
       width="1.2752294"
       height="1.6896552"
       x="-0.1146789"
       y="-0.28735632"
       filterUnits="objectBoundingBox">
      <feMorphology
         in="SourceAlpha"
         radius="5"
         result="shadowSpreadOuter1"
         id="feMorphology43" />
      <feOffset
         dx="10"
         dy="10"
         in="shadowSpreadOuter1"
         result="shadowOffsetOuter1"
         id="feOffset45" />
      <feGaussianBlur
         in="shadowOffsetOuter1"
         result="shadowBlurOuter1"
         stdDeviation="12.5"
         id="feGaussianBlur47" />
      <feColorMatrix
         in="shadowBlurOuter1"
         values="0 0 0 0 0.212302148 0 0 0 0 0.325209598 0 0 0 0 0.419299139 0 0 0 0.25 0"
         id="feColorMatrix49" />
    </filter>
    <path
       id="b"
       d="M35.776.57H227.01c18.34 0 33.208 14.235 33.208 31.795v435.27c0 17.56-14.867 31.796-33.208 31.796H35.776c-18.34 0-33.208-14.236-33.208-31.796V32.365C2.568 14.805 17.436.569 35.776.569z" />
    <path
       id="f"
       d="M93.602 0H19.196C8.09 0 0 7.563 0 17.441v422.39c0 12.88 12.502 24.292 26.64 24.292h179.332c13.618 0 26.64-11.5 26.64-24.292V18.583c0-11.84-8.79-18.513-19.196-18.583H137.83c-.287.047-5.479 2.182-7.673 7.563-2.195 5.382-6.61 9.672-11.445 9.672h-5.615c-2.298 0-8.348-2.23-11.411-9.672C98.623.121 93.888.047 93.602 0z" />
    <rect
       id="j"
       width="218"
       height="87"
       x="0"
       y="0"
       rx="5" />
  </defs>
  <g
     fill="none"
     fill-rule="evenodd"
     transform="translate(10.585204,61.426485)"
     id="g110">
    <use
       fill="#000000"
       filter="url(#a)"
       xlink:href="#b"
       id="use57" />
    <use
       fill="#213648"
       xlink:href="#b"
       id="use59"
       transform="translate(-339.96105,-12.85297)" />
    <path
       fill="url(#c)"
       fill-opacity="0.65"
       d="m -112.21305,-12.85297 h -192.824 c -9.004,0.549 -17.306,4.6570002 -24.909,12.32400019 4.89,-4.26799999 13.61,-9.98000019 25.14,-9.98000019 h 192.362 c 11.53,0 20.249998,5.7120002 25.139998,9.98000019 C -94.907052,-8.1959698 -103.21005,-12.30397 -112.21305,-12.85297 Z"
       opacity="0.596"
       id="path61"
       style="fill:url(#c)" />
    <path
       fill="url(#d)"
       d="m -84.962052,449.81703 v -427.687 c 0,-11.476 -4.217,-15.7179998 -6.733,-18.4419998 -2.516,-2.72300001 -2.623,-4.11300001 0.992,-2.056 3.615,2.056 10.845,8.047 10.845,20.4979998 v 427.687 c 0,12.451 -7.23,18.441 -10.845,20.498 -3.615,2.056 -3.508,0.667 -0.992,-2.057 2.516,-2.724 6.733,-6.966 6.733,-18.441 z"
       opacity="0.75"
       id="path63"
       style="fill:url(#d)" />
    <path
       fill="url(#e)"
       d="m -332.28905,449.81703 v -427.687 c 0,-11.476 4.217,-15.7179998 6.733,-18.4419998 2.516,-2.72300001 2.623,-4.11300001 -0.992,-2.056 -3.615,2.056 -10.845,8.047 -10.845,20.4979998 v 427.687 c 0,12.451 7.23,18.441 10.845,20.498 3.615,2.056 3.508,0.667 0.992,-2.057 -2.516,-2.724 -6.733,-6.966 -6.733,-18.441 z"
       opacity="0.75"
       id="path65"
       style="fill:url(#e)" />
    <path
       fill="#2e423c"
       d="m -337.96105,88.70403 h 0.965 a 2,2 0 0 1 2,2 v 60.35 a 2,2 0 0 1 -2,2 h -0.965 a 2,2 0 0 1 -2,-2 v -60.35 a 2,2 0 0 1 2,-2 z m 257.534998,52.487 h 0.965 a 2,2 0 0 1 2,2 v 42.95 a 2,2 0 0 1 -2,2 h -0.965 a 2,2 0 0 1 -2,-2 v -42.95 a 2,2 0 0 1 2,-2 z"
       id="path67" />
    <g
       transform="translate(-324.88705,-0.40896981)"
       id="g80">
      <mask
         id="h"
         fill="#ffffff">
        <use
           xlink:href="#f"
           id="use69" />
      </mask>
      <use
         fill="#ffffff"
         xlink:href="#f"
         id="use72" />
      <path
         fill="url(#g)"
         mask="url(#h)"
         d="m -0.074,0 h 233 v 465 h -233 z"
         id="path74"
         style="fill:url(#g)" />
      <text
         fill="#ffffff"
         font-family="PublicSans-Bold, 'Public Sans'"
         font-size="32px"
         font-weight="bold"
         mask="url(#h)"
         id="text78"><tspan
           x="73.926003"
           y="127.556"
           id="tspan76">12:49</tspan></text>
    </g>
    <g
       transform="translate(-317.96105,154.14703)"
       id="g108">
      <use
         fill="#000000"
         filter="url(#i)"
         xlink:href="#j"
         id="use82" />
      <use
         fill="#fbfcfe"
         xlink:href="#j"
         id="use84" />
      <g
         font-size="10px"
         id="g94">
        <text
           fill="#ba4270"
           font-family="PublicSans-Bold, 'Public Sans'"
           font-weight="bold"
           transform="translate(16,16)"
           id="text88"><tspan
             x="0"
             y="9"
             id="tspan86">PayAPI</tspan></text>
        <text
           fill="#36536b"
           font-family="PublicSans-Regular, 'Public Sans'"
           opacity="0.5"
           transform="translate(16,16)"
           id="text92"><tspan
             x="144.05"
             y="9"
             id="tspan90">Just Now</tspan></text>
      </g>
      <text
         fill="#36536b"
         font-family="PublicSans-Regular, 'Public Sans'"
         font-size="10px"
         id="text106"><tspan
           x="16"
           y="40"
           id="tspan96">The payment has been processed. The</tspan><tspan
           x="16"
           y="54"
           id="tspan98">total amount deducted from your</tspan><tspan
           x="16"
           y="68"
           id="tspan100">account is</tspan><tspan
           x="63.619999"
           y="68"
           font-family="PublicSans-Bold, 'Public Sans'"
           font-weight="bold"
           id="tspan102">US $104.90</tspan><tspan
           x="121.855"
           y="68"
           id="tspan104">.</tspan></text>
    </g>
  </g>
</svg>
